<mxfile host="Electron" modified="2024-02-15T14:35:49.823Z" agent="Mozilla/5.0 (Macintosh; Intel Mac OS X 10_15_7) AppleWebKit/537.36 (KHTML, like Gecko) draw.io/22.1.2 Chrome/114.0.5735.289 Electron/25.9.4 Safari/537.36" etag="SG--HiX_3QRDX9GHoE43" version="22.1.2" type="device">
  <diagram name="Page-1" id="qPn6tLFUf5XQ70IFX4JM">
    <mxGraphModel dx="2500" dy="1464" grid="1" gridSize="10" guides="1" tooltips="1" connect="1" arrows="1" fold="1" page="1" pageScale="1" pageWidth="827" pageHeight="1169" math="0" shadow="0">
      <root>
        <mxCell id="0" />
        <mxCell id="1" parent="0" />
        <mxCell id="vwcKimlazGdnEoJEuRjA-1" value="ML Wokspaces" style="rounded=1;whiteSpace=wrap;html=1;" vertex="1" parent="1">
          <mxGeometry x="120" y="200" width="120" height="60" as="geometry" />
        </mxCell>
        <mxCell id="vwcKimlazGdnEoJEuRjA-2" value="Azure Cognitive Services" style="rounded=1;whiteSpace=wrap;html=1;" vertex="1" parent="1">
          <mxGeometry x="354" y="200" width="120" height="60" as="geometry" />
        </mxCell>
        <mxCell id="vwcKimlazGdnEoJEuRjA-3" value="Azure Open AI Service" style="rounded=1;whiteSpace=wrap;html=1;" vertex="1" parent="1">
          <mxGeometry x="707" y="200" width="120" height="60" as="geometry" />
        </mxCell>
        <mxCell id="vwcKimlazGdnEoJEuRjA-4" value="Azure AI Studio" style="rounded=1;whiteSpace=wrap;html=1;" vertex="1" parent="1">
          <mxGeometry x="1520" y="200" width="120" height="60" as="geometry" />
        </mxCell>
        <mxCell id="vwcKimlazGdnEoJEuRjA-5" value="Azure AI Services" style="rounded=1;whiteSpace=wrap;html=1;" vertex="1" parent="1">
          <mxGeometry x="1760" y="200" width="120" height="60" as="geometry" />
        </mxCell>
        <mxCell id="vwcKimlazGdnEoJEuRjA-6" value="Prompt Flow" style="rounded=1;whiteSpace=wrap;html=1;" vertex="1" parent="1">
          <mxGeometry x="160" y="280" width="120" height="60" as="geometry" />
        </mxCell>
        <mxCell id="vwcKimlazGdnEoJEuRjA-7" value="V1" style="text;html=1;strokeColor=none;fillColor=none;align=center;verticalAlign=middle;whiteSpace=wrap;rounded=0;fontStyle=1;fontSize=28;" vertex="1" parent="1">
          <mxGeometry x="120" y="150" width="60" height="30" as="geometry" />
        </mxCell>
        <mxCell id="vwcKimlazGdnEoJEuRjA-8" value="Cognitive Search" style="rounded=1;whiteSpace=wrap;html=1;" vertex="1" parent="1">
          <mxGeometry x="400" y="280" width="120" height="60" as="geometry" />
        </mxCell>
        <mxCell id="vwcKimlazGdnEoJEuRjA-9" value="Form Recognizer" style="rounded=1;whiteSpace=wrap;html=1;" vertex="1" parent="1">
          <mxGeometry x="400" y="360" width="120" height="60" as="geometry" />
        </mxCell>
        <mxCell id="vwcKimlazGdnEoJEuRjA-10" value="" style="endArrow=none;html=1;rounded=0;" edge="1" parent="1">
          <mxGeometry width="50" height="50" relative="1" as="geometry">
            <mxPoint x="620" y="530" as="sourcePoint" />
            <mxPoint x="620" y="170" as="targetPoint" />
          </mxGeometry>
        </mxCell>
        <mxCell id="vwcKimlazGdnEoJEuRjA-11" value="GPT Released" style="text;html=1;strokeColor=none;fillColor=none;align=center;verticalAlign=middle;whiteSpace=wrap;rounded=0;fontStyle=1;fontSize=28;" vertex="1" parent="1">
          <mxGeometry x="540" y="80" width="180" height="70" as="geometry" />
        </mxCell>
        <mxCell id="vwcKimlazGdnEoJEuRjA-12" value="V2" style="text;html=1;strokeColor=none;fillColor=none;align=center;verticalAlign=middle;whiteSpace=wrap;rounded=0;fontStyle=1;fontSize=28;" vertex="1" parent="1">
          <mxGeometry x="1060" y="140" width="60" height="30" as="geometry" />
        </mxCell>
        <mxCell id="vwcKimlazGdnEoJEuRjA-13" value="ML Wokspaces" style="rounded=1;whiteSpace=wrap;html=1;" vertex="1" parent="1">
          <mxGeometry x="1080" y="200" width="120" height="60" as="geometry" />
        </mxCell>
        <mxCell id="vwcKimlazGdnEoJEuRjA-14" value="" style="endArrow=none;html=1;rounded=0;" edge="1" parent="1">
          <mxGeometry width="50" height="50" relative="1" as="geometry">
            <mxPoint x="920" y="520" as="sourcePoint" />
            <mxPoint x="920" y="160" as="targetPoint" />
          </mxGeometry>
        </mxCell>
        <mxCell id="vwcKimlazGdnEoJEuRjA-15" value="Build / Ignite" style="text;html=1;strokeColor=none;fillColor=none;align=center;verticalAlign=middle;whiteSpace=wrap;rounded=0;fontStyle=1;fontSize=28;" vertex="1" parent="1">
          <mxGeometry x="810" y="70" width="180" height="70" as="geometry" />
        </mxCell>
        <mxCell id="vwcKimlazGdnEoJEuRjA-18" value="AI Search Service" style="rounded=1;whiteSpace=wrap;html=1;" vertex="1" parent="1">
          <mxGeometry x="1290" y="200" width="120" height="60" as="geometry" />
        </mxCell>
        <mxCell id="vwcKimlazGdnEoJEuRjA-19" value="Document Intelligence Service" style="rounded=1;whiteSpace=wrap;html=1;" vertex="1" parent="1">
          <mxGeometry x="1290" y="280" width="120" height="60" as="geometry" />
        </mxCell>
        <mxCell id="vwcKimlazGdnEoJEuRjA-20" value="Prompt Flow" style="rounded=1;whiteSpace=wrap;html=1;" vertex="1" parent="1">
          <mxGeometry x="1560" y="280" width="120" height="60" as="geometry" />
        </mxCell>
        <mxCell id="vwcKimlazGdnEoJEuRjA-21" value="Search Endpoint" style="rounded=1;whiteSpace=wrap;html=1;" vertex="1" parent="1">
          <mxGeometry x="1800" y="280" width="120" height="60" as="geometry" />
        </mxCell>
        <mxCell id="vwcKimlazGdnEoJEuRjA-22" value="Tokenizer Endpoint" style="rounded=1;whiteSpace=wrap;html=1;" vertex="1" parent="1">
          <mxGeometry x="1800" y="370" width="120" height="60" as="geometry" />
        </mxCell>
        <mxCell id="vwcKimlazGdnEoJEuRjA-23" value="Document Intelligence Endpoint" style="rounded=1;whiteSpace=wrap;html=1;" vertex="1" parent="1">
          <mxGeometry x="1800" y="460" width="120" height="60" as="geometry" />
        </mxCell>
        <mxCell id="vwcKimlazGdnEoJEuRjA-24" value="Keys" style="rounded=1;whiteSpace=wrap;html=1;" vertex="1" parent="1">
          <mxGeometry x="1948" y="330" width="120" height="60" as="geometry" />
        </mxCell>
        <mxCell id="vwcKimlazGdnEoJEuRjA-25" value="Endpoints" style="rounded=1;whiteSpace=wrap;html=1;" vertex="1" parent="1">
          <mxGeometry x="1948" y="420" width="120" height="60" as="geometry" />
        </mxCell>
        <mxCell id="vwcKimlazGdnEoJEuRjA-26" value="Azure Open AI Service" style="rounded=1;whiteSpace=wrap;html=1;" vertex="1" parent="1">
          <mxGeometry x="2120" y="200" width="120" height="60" as="geometry" />
        </mxCell>
        <mxCell id="vwcKimlazGdnEoJEuRjA-27" value="Azure Open AI Enpoint" style="rounded=1;whiteSpace=wrap;html=1;" vertex="1" parent="1">
          <mxGeometry x="1800" y="540" width="120" height="60" as="geometry" />
        </mxCell>
        <mxCell id="vwcKimlazGdnEoJEuRjA-28" value="Open AI Studio&lt;br&gt;Portal" style="whiteSpace=wrap;html=1;aspect=fixed;fillColor=#fff2cc;strokeColor=#d6b656;" vertex="1" parent="1">
          <mxGeometry x="2140" y="90" width="80" height="80" as="geometry" />
        </mxCell>
        <mxCell id="vwcKimlazGdnEoJEuRjA-29" value="AI Studio Portal" style="whiteSpace=wrap;html=1;aspect=fixed;fillColor=#fff2cc;strokeColor=#d6b656;" vertex="1" parent="1">
          <mxGeometry x="1540" y="90" width="80" height="80" as="geometry" />
        </mxCell>
        <mxCell id="vwcKimlazGdnEoJEuRjA-30" value="Azure Portal" style="whiteSpace=wrap;html=1;aspect=fixed;fillColor=#fff2cc;strokeColor=#d6b656;" vertex="1" parent="1">
          <mxGeometry x="1310" y="90" width="80" height="80" as="geometry" />
        </mxCell>
        <mxCell id="vwcKimlazGdnEoJEuRjA-31" value="Document Intelligence Studio Portal" style="whiteSpace=wrap;html=1;aspect=fixed;fillColor=#fff2cc;strokeColor=#d6b656;" vertex="1" parent="1">
          <mxGeometry x="1310" y="360" width="80" height="80" as="geometry" />
        </mxCell>
      </root>
    </mxGraphModel>
  </diagram>
</mxfile>
